<svg width="69" height="89" viewBox="0 0 69 89" fill="none" xmlns="http://www.w3.org/2000/svg">
<path d="M0.337581 24.314C-0.721928 27.2471 2.19172 29.2026 3.78098 29.8136C3.46286 32.8417 3.29792 35.8993 3.89131 38.8858C0.0881561 39.9727 -0.227885 42.921 0.0961693 44.2745C0.621858 45.342 1.98612 48.1917 3.23764 51.0499C4.48916 53.9081 7.76027 53.4861 9.3434 52.8597C13.4048 55.7404 21.8456 64.1208 23.117 74.5962C23.2053 75.2946 23.8587 76.6913 25.7658 76.6913H44.0423C44.7486 76.7786 46.1613 76.4818 46.1613 74.5962C46.1613 72.2393 50.9291 58.0974 59.1403 52.8597C62.6429 54.9208 64.8274 52.7854 65.5946 51.5997C66.0047 50.4837 67.1264 47.5324 68.3327 44.6553C69.5326 41.7936 66.758 39.7039 65.1967 39.0037C65.6444 35.9619 65.6267 32.8706 65.1439 29.8337C68.8911 28.6582 69.1396 25.717 68.7869 24.3747C68.2378 23.3187 66.8112 20.4991 65.497 17.6685C64.1829 14.8379 60.7387 15.2958 59.1697 15.9561C57.3025 13.4485 55.0597 11.237 52.5184 9.3977C54.4329 5.83995 52.6241 3.49425 51.3894 2.79336C50.2424 2.44183 47.2071 1.47537 44.2427 0.421766C41.2783 -0.631841 39.7515 2.63492 39.1302 4.20497C36.0314 3.64896 32.9182 3.47261 29.7933 3.86009C28.6199 0.000684577 25.5748 -0.241123 24.1989 0.1204C23.1339 0.669107 20.29 2.09526 17.4344 3.41024C14.5788 4.72521 15.3115 8.08296 15.9881 9.63053C13.4487 11.4723 11.208 13.6861 9.3434 16.1955C5.74107 14.31 3.42782 16.0209 2.72148 17.2431C2.36831 18.3779 1.39709 21.3809 0.337581 24.314Z" fill="white"/>
<ellipse cx="34.5067" cy="34.5277" rx="27.0175" ry="26.7124" fill="#004A87"/>
<rect x="23.9116" y="79.5719" width="21.1902" height="2.09509" rx="1.04754" fill="white"/>
<rect x="27.6199" y="83.2384" width="13.7736" height="2.09509" rx="1.04755" fill="white"/>
<rect x="30.7984" y="86.9049" width="7.41656" height="2.09509" rx="1.04755" fill="white"/>
<path d="M41.8948 56.0048C46.4767 54.5746 48.8644 52.6706 51.7237 48.8529L48.0155 42.908C46.1083 45.4544 42.6671 47.8989 39.611 48.8529C36.5549 49.8069 33.272 49.7811 30.2317 48.7791C27.1914 47.7771 24.5494 45.8502 22.6835 43.2741C20.8176 40.698 19.8233 37.6045 19.8429 34.4359C19.8624 31.2674 20.8948 28.1861 22.7924 25.6327C24.69 23.0793 27.3556 21.1845 30.408 20.2192C35.817 18.6195 41.2215 20.3041 43.2477 21.3464L41.1287 24.314L46.6911 29.028L53.5072 21.3464C50.6952 17.4944 46.7233 14.6202 42.1595 13.1348C37.5957 11.6493 32.6737 11.6287 28.0973 13.0758C23.5209 14.5229 19.5245 17.3637 16.6795 21.1919C13.8346 25.0202 12.2868 29.6398 12.2575 34.3902C12.2282 39.1406 13.7188 43.7785 16.5163 47.6408C19.3138 51.503 23.2748 54.3918 27.833 55.8941C32.3911 57.3963 37.313 57.4351 41.8948 56.0048Z" fill="white"/>
</svg>
